<mxfile host="Electron" modified="2023-11-12T09:20:47.698Z" agent="Mozilla/5.0 (Windows NT 10.0; Win64; x64) AppleWebKit/537.36 (KHTML, like Gecko) draw.io/22.0.3 Chrome/114.0.5735.289 Electron/25.8.4 Safari/537.36" etag="bjclLhuCiWjOVJDW6aMO" version="22.0.3" type="device">
  <diagram id="C5RBs43oDa-KdzZeNtuy" name="Page-1">
    <mxGraphModel dx="913" dy="540" grid="1" gridSize="10" guides="1" tooltips="1" connect="1" arrows="1" fold="1" page="1" pageScale="1" pageWidth="827" pageHeight="1169" math="0" shadow="0">
      <root>
        <mxCell id="WIyWlLk6GJQsqaUBKTNV-0" />
        <mxCell id="WIyWlLk6GJQsqaUBKTNV-1" parent="WIyWlLk6GJQsqaUBKTNV-0" />
        <mxCell id="sKyEI40k2Y5IoA3rtuJI-8" value="" style="swimlane;startSize=0;fontStyle=0" parent="WIyWlLk6GJQsqaUBKTNV-1" vertex="1">
          <mxGeometry x="370" y="170" width="990" height="480" as="geometry" />
        </mxCell>
        <mxCell id="sKyEI40k2Y5IoA3rtuJI-10" value="&lt;font style=&quot;font-size: 18px;&quot;&gt;Chat&lt;/font&gt;" style="text;html=1;strokeColor=none;fillColor=none;align=center;verticalAlign=middle;whiteSpace=wrap;rounded=0;labelBorderColor=none;fontStyle=1" parent="sKyEI40k2Y5IoA3rtuJI-8" vertex="1">
          <mxGeometry x="460" width="80" height="40" as="geometry" />
        </mxCell>
        <mxCell id="cS7-RgSccxMJ9TShwJvT-1" value="Routes" style="text;html=1;strokeColor=none;fillColor=none;align=center;verticalAlign=middle;whiteSpace=wrap;rounded=0;fontSize=16;" vertex="1" parent="sKyEI40k2Y5IoA3rtuJI-8">
          <mxGeometry x="50" y="60" width="100" height="30" as="geometry" />
        </mxCell>
        <mxCell id="cS7-RgSccxMJ9TShwJvT-7" value="Controllers" style="text;html=1;strokeColor=none;fillColor=none;align=center;verticalAlign=middle;whiteSpace=wrap;rounded=0;fontSize=16;" vertex="1" parent="sKyEI40k2Y5IoA3rtuJI-8">
          <mxGeometry x="337.5" y="60" width="100" height="30" as="geometry" />
        </mxCell>
        <mxCell id="cS7-RgSccxMJ9TShwJvT-17" value="&lt;b&gt;ChatroomController&lt;/b&gt;" style="swimlane;fontStyle=0;childLayout=stackLayout;horizontal=1;startSize=30;horizontalStack=0;resizeParent=1;resizeParentMax=0;resizeLast=0;collapsible=1;marginBottom=0;whiteSpace=wrap;html=1;" vertex="1" parent="sKyEI40k2Y5IoA3rtuJI-8">
          <mxGeometry x="290" y="105" width="195" height="60" as="geometry" />
        </mxCell>
        <mxCell id="cS7-RgSccxMJ9TShwJvT-18" value="handleCreateChatroom" style="text;strokeColor=none;fillColor=none;align=left;verticalAlign=middle;spacingLeft=4;spacingRight=4;overflow=hidden;points=[[0,0.5],[1,0.5]];portConstraint=eastwest;rotatable=0;whiteSpace=wrap;html=1;" vertex="1" parent="cS7-RgSccxMJ9TShwJvT-17">
          <mxGeometry y="30" width="195" height="30" as="geometry" />
        </mxCell>
        <mxCell id="cS7-RgSccxMJ9TShwJvT-21" value="&lt;b&gt;ChatroomRouter&lt;/b&gt;" style="swimlane;fontStyle=0;childLayout=stackLayout;horizontal=1;startSize=30;horizontalStack=0;resizeParent=1;resizeParentMax=0;resizeLast=0;collapsible=1;marginBottom=0;whiteSpace=wrap;html=1;" vertex="1" parent="sKyEI40k2Y5IoA3rtuJI-8">
          <mxGeometry x="30" y="105" width="140" height="60" as="geometry" />
        </mxCell>
        <mxCell id="cS7-RgSccxMJ9TShwJvT-22" value="/create-chatroom" style="text;strokeColor=none;fillColor=none;align=left;verticalAlign=middle;spacingLeft=4;spacingRight=4;overflow=hidden;points=[[0,0.5],[1,0.5]];portConstraint=eastwest;rotatable=0;whiteSpace=wrap;html=1;" vertex="1" parent="cS7-RgSccxMJ9TShwJvT-21">
          <mxGeometry y="30" width="140" height="30" as="geometry" />
        </mxCell>
        <mxCell id="cS7-RgSccxMJ9TShwJvT-25" style="edgeStyle=orthogonalEdgeStyle;rounded=0;orthogonalLoop=1;jettySize=auto;html=1;entryX=0;entryY=0.5;entryDx=0;entryDy=0;" edge="1" parent="sKyEI40k2Y5IoA3rtuJI-8" source="cS7-RgSccxMJ9TShwJvT-22" target="cS7-RgSccxMJ9TShwJvT-18">
          <mxGeometry relative="1" as="geometry" />
        </mxCell>
        <mxCell id="cS7-RgSccxMJ9TShwJvT-33" value="&lt;b&gt;ChatroomService&lt;/b&gt;" style="swimlane;fontStyle=0;childLayout=stackLayout;horizontal=1;startSize=30;horizontalStack=0;resizeParent=1;resizeParentMax=0;resizeLast=0;collapsible=1;marginBottom=0;whiteSpace=wrap;html=1;" vertex="1" parent="sKyEI40k2Y5IoA3rtuJI-8">
          <mxGeometry x="550" y="105" width="195" height="60" as="geometry" />
        </mxCell>
        <mxCell id="cS7-RgSccxMJ9TShwJvT-34" value="createNewChatroom" style="text;strokeColor=none;fillColor=none;align=left;verticalAlign=middle;spacingLeft=4;spacingRight=4;overflow=hidden;points=[[0,0.5],[1,0.5]];portConstraint=eastwest;rotatable=0;whiteSpace=wrap;html=1;" vertex="1" parent="cS7-RgSccxMJ9TShwJvT-33">
          <mxGeometry y="30" width="195" height="30" as="geometry" />
        </mxCell>
        <mxCell id="cS7-RgSccxMJ9TShwJvT-32" value="Services" style="text;html=1;strokeColor=none;fillColor=none;align=center;verticalAlign=middle;whiteSpace=wrap;rounded=0;fontSize=16;" vertex="1" parent="sKyEI40k2Y5IoA3rtuJI-8">
          <mxGeometry x="597.5" y="60" width="100" height="30" as="geometry" />
        </mxCell>
        <mxCell id="cS7-RgSccxMJ9TShwJvT-37" value="MessageController" style="swimlane;fontStyle=0;childLayout=stackLayout;horizontal=1;startSize=30;horizontalStack=0;resizeParent=1;resizeParentMax=0;resizeLast=0;collapsible=1;marginBottom=0;whiteSpace=wrap;html=1;" vertex="1" parent="sKyEI40k2Y5IoA3rtuJI-8">
          <mxGeometry x="290" y="235" width="200" height="90" as="geometry" />
        </mxCell>
        <mxCell id="cS7-RgSccxMJ9TShwJvT-38" value="handleConnection" style="text;strokeColor=none;fillColor=none;align=left;verticalAlign=middle;spacingLeft=4;spacingRight=4;overflow=hidden;points=[[0,0.5],[1,0.5]];portConstraint=eastwest;rotatable=0;whiteSpace=wrap;html=1;" vertex="1" parent="cS7-RgSccxMJ9TShwJvT-37">
          <mxGeometry y="30" width="200" height="30" as="geometry" />
        </mxCell>
        <mxCell id="cS7-RgSccxMJ9TShwJvT-39" value="handleSendMessage" style="text;strokeColor=none;fillColor=none;align=left;verticalAlign=middle;spacingLeft=4;spacingRight=4;overflow=hidden;points=[[0,0.5],[1,0.5]];portConstraint=eastwest;rotatable=0;whiteSpace=wrap;html=1;" vertex="1" parent="cS7-RgSccxMJ9TShwJvT-37">
          <mxGeometry y="60" width="200" height="30" as="geometry" />
        </mxCell>
        <mxCell id="cS7-RgSccxMJ9TShwJvT-43" style="edgeStyle=orthogonalEdgeStyle;rounded=0;orthogonalLoop=1;jettySize=auto;html=1;" edge="1" parent="sKyEI40k2Y5IoA3rtuJI-8" source="cS7-RgSccxMJ9TShwJvT-18" target="cS7-RgSccxMJ9TShwJvT-34">
          <mxGeometry relative="1" as="geometry" />
        </mxCell>
        <mxCell id="cS7-RgSccxMJ9TShwJvT-45" value="" style="shape=datastore;whiteSpace=wrap;html=1;" vertex="1" parent="sKyEI40k2Y5IoA3rtuJI-8">
          <mxGeometry x="841" y="220" width="79" height="90" as="geometry" />
        </mxCell>
        <mxCell id="cS7-RgSccxMJ9TShwJvT-49" value="" style="shape=image;imageAspect=0;aspect=fixed;verticalLabelPosition=bottom;verticalAlign=top;image=https://www.strongdm.com/hubfs/21126185/Technology%20Images/603c5eb831820c3ce6a8f057_603a1586fa052d17fc2a6929_MongoDBAtlas.png;" vertex="1" parent="sKyEI40k2Y5IoA3rtuJI-8">
          <mxGeometry x="850.5" y="250" width="60" height="60" as="geometry" />
        </mxCell>
        <mxCell id="cS7-RgSccxMJ9TShwJvT-50" style="edgeStyle=orthogonalEdgeStyle;rounded=0;orthogonalLoop=1;jettySize=auto;html=1;exitX=1;exitY=0.5;exitDx=0;exitDy=0;entryX=0;entryY=0.5;entryDx=0;entryDy=0;" edge="1" parent="sKyEI40k2Y5IoA3rtuJI-8" source="cS7-RgSccxMJ9TShwJvT-34" target="cS7-RgSccxMJ9TShwJvT-45">
          <mxGeometry relative="1" as="geometry">
            <Array as="points">
              <mxPoint x="780" y="150" />
              <mxPoint x="780" y="265" />
            </Array>
          </mxGeometry>
        </mxCell>
        <mxCell id="cS7-RgSccxMJ9TShwJvT-51" value="MessageService" style="swimlane;fontStyle=0;childLayout=stackLayout;horizontal=1;startSize=30;horizontalStack=0;resizeParent=1;resizeParentMax=0;resizeLast=0;collapsible=1;marginBottom=0;whiteSpace=wrap;html=1;" vertex="1" parent="sKyEI40k2Y5IoA3rtuJI-8">
          <mxGeometry x="550" y="235" width="200" height="90" as="geometry" />
        </mxCell>
        <mxCell id="cS7-RgSccxMJ9TShwJvT-52" value="getMessages" style="text;align=left;verticalAlign=middle;spacingLeft=4;spacingRight=4;overflow=hidden;points=[[0,0.5],[1,0.5]];portConstraint=eastwest;rotatable=0;whiteSpace=wrap;html=1;opacity=0;" vertex="1" parent="cS7-RgSccxMJ9TShwJvT-51">
          <mxGeometry y="30" width="200" height="30" as="geometry" />
        </mxCell>
        <mxCell id="cS7-RgSccxMJ9TShwJvT-53" value="appendMessages" style="text;strokeColor=none;fillColor=none;align=left;verticalAlign=middle;spacingLeft=4;spacingRight=4;overflow=hidden;points=[[0,0.5],[1,0.5]];portConstraint=eastwest;rotatable=0;whiteSpace=wrap;html=1;" vertex="1" parent="cS7-RgSccxMJ9TShwJvT-51">
          <mxGeometry y="60" width="200" height="30" as="geometry" />
        </mxCell>
        <mxCell id="cS7-RgSccxMJ9TShwJvT-54" style="edgeStyle=orthogonalEdgeStyle;rounded=0;orthogonalLoop=1;jettySize=auto;html=1;entryX=0;entryY=0.5;entryDx=0;entryDy=0;" edge="1" parent="sKyEI40k2Y5IoA3rtuJI-8" source="cS7-RgSccxMJ9TShwJvT-38" target="cS7-RgSccxMJ9TShwJvT-52">
          <mxGeometry relative="1" as="geometry" />
        </mxCell>
        <mxCell id="cS7-RgSccxMJ9TShwJvT-55" style="edgeStyle=orthogonalEdgeStyle;rounded=0;orthogonalLoop=1;jettySize=auto;html=1;exitX=1;exitY=0.5;exitDx=0;exitDy=0;" edge="1" parent="sKyEI40k2Y5IoA3rtuJI-8" source="cS7-RgSccxMJ9TShwJvT-39" target="cS7-RgSccxMJ9TShwJvT-53">
          <mxGeometry relative="1" as="geometry" />
        </mxCell>
        <mxCell id="cS7-RgSccxMJ9TShwJvT-56" style="edgeStyle=orthogonalEdgeStyle;rounded=0;orthogonalLoop=1;jettySize=auto;html=1;exitX=1;exitY=0.5;exitDx=0;exitDy=0;entryX=0;entryY=0.5;entryDx=0;entryDy=0;" edge="1" parent="sKyEI40k2Y5IoA3rtuJI-8" source="cS7-RgSccxMJ9TShwJvT-52" target="cS7-RgSccxMJ9TShwJvT-45">
          <mxGeometry relative="1" as="geometry">
            <Array as="points">
              <mxPoint x="780" y="280" />
              <mxPoint x="780" y="265" />
            </Array>
          </mxGeometry>
        </mxCell>
        <mxCell id="cS7-RgSccxMJ9TShwJvT-58" style="edgeStyle=orthogonalEdgeStyle;rounded=0;orthogonalLoop=1;jettySize=auto;html=1;entryX=0;entryY=0.5;entryDx=0;entryDy=0;" edge="1" parent="sKyEI40k2Y5IoA3rtuJI-8" source="cS7-RgSccxMJ9TShwJvT-53" target="cS7-RgSccxMJ9TShwJvT-45">
          <mxGeometry relative="1" as="geometry">
            <Array as="points">
              <mxPoint x="780" y="310" />
              <mxPoint x="780" y="265" />
            </Array>
          </mxGeometry>
        </mxCell>
        <mxCell id="cS7-RgSccxMJ9TShwJvT-61" value="SocketIO" style="swimlane;fontStyle=0;childLayout=stackLayout;horizontal=1;startSize=30;horizontalStack=0;resizeParent=1;resizeParentMax=0;resizeLast=0;collapsible=1;marginBottom=0;whiteSpace=wrap;html=1;" vertex="1" parent="sKyEI40k2Y5IoA3rtuJI-8">
          <mxGeometry x="30" y="235" width="140" height="150" as="geometry" />
        </mxCell>
        <mxCell id="cS7-RgSccxMJ9TShwJvT-62" value="connection" style="text;strokeColor=none;fillColor=none;align=left;verticalAlign=middle;spacingLeft=4;spacingRight=4;overflow=hidden;points=[[0,0.5],[1,0.5]];portConstraint=eastwest;rotatable=0;whiteSpace=wrap;html=1;" vertex="1" parent="cS7-RgSccxMJ9TShwJvT-61">
          <mxGeometry y="30" width="140" height="30" as="geometry" />
        </mxCell>
        <mxCell id="cS7-RgSccxMJ9TShwJvT-64" value="connectToChatroom" style="text;strokeColor=none;fillColor=none;align=left;verticalAlign=middle;spacingLeft=4;spacingRight=4;overflow=hidden;points=[[0,0.5],[1,0.5]];portConstraint=eastwest;rotatable=0;whiteSpace=wrap;html=1;" vertex="1" parent="cS7-RgSccxMJ9TShwJvT-61">
          <mxGeometry y="60" width="140" height="30" as="geometry" />
        </mxCell>
        <mxCell id="cS7-RgSccxMJ9TShwJvT-63" value="sendMessage" style="text;strokeColor=none;fillColor=none;align=left;verticalAlign=middle;spacingLeft=4;spacingRight=4;overflow=hidden;points=[[0,0.5],[1,0.5]];portConstraint=eastwest;rotatable=0;whiteSpace=wrap;html=1;" vertex="1" parent="cS7-RgSccxMJ9TShwJvT-61">
          <mxGeometry y="90" width="140" height="30" as="geometry" />
        </mxCell>
        <mxCell id="cS7-RgSccxMJ9TShwJvT-66" value="receiveMessage" style="text;strokeColor=none;fillColor=none;align=left;verticalAlign=middle;spacingLeft=4;spacingRight=4;overflow=hidden;points=[[0,0.5],[1,0.5]];portConstraint=eastwest;rotatable=0;whiteSpace=wrap;html=1;" vertex="1" parent="cS7-RgSccxMJ9TShwJvT-61">
          <mxGeometry y="120" width="140" height="30" as="geometry" />
        </mxCell>
        <mxCell id="cS7-RgSccxMJ9TShwJvT-65" value="Websockets" style="text;html=1;strokeColor=none;fillColor=none;align=center;verticalAlign=middle;whiteSpace=wrap;rounded=0;fontSize=16;" vertex="1" parent="sKyEI40k2Y5IoA3rtuJI-8">
          <mxGeometry x="65" y="200" width="70" height="30" as="geometry" />
        </mxCell>
        <mxCell id="cS7-RgSccxMJ9TShwJvT-67" style="edgeStyle=orthogonalEdgeStyle;rounded=0;orthogonalLoop=1;jettySize=auto;html=1;" edge="1" parent="sKyEI40k2Y5IoA3rtuJI-8" source="cS7-RgSccxMJ9TShwJvT-62" target="cS7-RgSccxMJ9TShwJvT-38">
          <mxGeometry relative="1" as="geometry" />
        </mxCell>
        <mxCell id="cS7-RgSccxMJ9TShwJvT-80" value="Handling&lt;br&gt;connection" style="edgeLabel;html=1;align=center;verticalAlign=middle;resizable=0;points=[];" vertex="1" connectable="0" parent="cS7-RgSccxMJ9TShwJvT-67">
          <mxGeometry x="-0.09" y="3" relative="1" as="geometry">
            <mxPoint x="5" y="3" as="offset" />
          </mxGeometry>
        </mxCell>
        <mxCell id="cS7-RgSccxMJ9TShwJvT-72" style="edgeStyle=orthogonalEdgeStyle;rounded=0;orthogonalLoop=1;jettySize=auto;html=1;exitX=1;exitY=0.5;exitDx=0;exitDy=0;entryX=0;entryY=0.5;entryDx=0;entryDy=0;" edge="1" parent="sKyEI40k2Y5IoA3rtuJI-8" source="cS7-RgSccxMJ9TShwJvT-63" target="cS7-RgSccxMJ9TShwJvT-39">
          <mxGeometry relative="1" as="geometry" />
        </mxCell>
        <mxCell id="cS7-RgSccxMJ9TShwJvT-75" value="Sending message to" style="edgeLabel;html=1;align=center;verticalAlign=middle;resizable=0;points=[];" vertex="1" connectable="0" parent="cS7-RgSccxMJ9TShwJvT-72">
          <mxGeometry x="0.0224" y="-2" relative="1" as="geometry">
            <mxPoint as="offset" />
          </mxGeometry>
        </mxCell>
        <mxCell id="cS7-RgSccxMJ9TShwJvT-73" style="edgeStyle=orthogonalEdgeStyle;rounded=0;orthogonalLoop=1;jettySize=auto;html=1;entryX=1;entryY=0.5;entryDx=0;entryDy=0;exitX=1;exitY=0.5;exitDx=0;exitDy=0;" edge="1" parent="sKyEI40k2Y5IoA3rtuJI-8" source="cS7-RgSccxMJ9TShwJvT-39" target="cS7-RgSccxMJ9TShwJvT-66">
          <mxGeometry relative="1" as="geometry" />
        </mxCell>
        <mxCell id="cS7-RgSccxMJ9TShwJvT-74" value="Receive message from" style="edgeLabel;html=1;align=center;verticalAlign=middle;resizable=0;points=[];" vertex="1" connectable="0" parent="cS7-RgSccxMJ9TShwJvT-73">
          <mxGeometry x="0.162" y="-3" relative="1" as="geometry">
            <mxPoint y="3" as="offset" />
          </mxGeometry>
        </mxCell>
        <mxCell id="cS7-RgSccxMJ9TShwJvT-68" style="edgeStyle=orthogonalEdgeStyle;rounded=0;orthogonalLoop=1;jettySize=auto;html=1;entryX=0;entryY=0.5;entryDx=0;entryDy=0;exitX=1;exitY=0.5;exitDx=0;exitDy=0;" edge="1" parent="WIyWlLk6GJQsqaUBKTNV-1" source="sKyEI40k2Y5IoA3rtuJI-125" target="cS7-RgSccxMJ9TShwJvT-62">
          <mxGeometry relative="1" as="geometry">
            <Array as="points">
              <mxPoint x="270" y="480" />
              <mxPoint x="270" y="450" />
            </Array>
          </mxGeometry>
        </mxCell>
        <mxCell id="cS7-RgSccxMJ9TShwJvT-76" value="On connection" style="edgeLabel;html=1;align=center;verticalAlign=middle;resizable=0;points=[];" vertex="1" connectable="0" parent="cS7-RgSccxMJ9TShwJvT-68">
          <mxGeometry x="0.336" relative="1" as="geometry">
            <mxPoint as="offset" />
          </mxGeometry>
        </mxCell>
        <mxCell id="cS7-RgSccxMJ9TShwJvT-69" style="edgeStyle=orthogonalEdgeStyle;rounded=0;orthogonalLoop=1;jettySize=auto;html=1;exitX=1;exitY=0.5;exitDx=0;exitDy=0;" edge="1" parent="WIyWlLk6GJQsqaUBKTNV-1" source="sKyEI40k2Y5IoA3rtuJI-125" target="cS7-RgSccxMJ9TShwJvT-64">
          <mxGeometry relative="1" as="geometry" />
        </mxCell>
        <mxCell id="cS7-RgSccxMJ9TShwJvT-77" value="When ready" style="edgeLabel;html=1;align=center;verticalAlign=middle;resizable=0;points=[];" vertex="1" connectable="0" parent="cS7-RgSccxMJ9TShwJvT-69">
          <mxGeometry x="0.1482" y="-1" relative="1" as="geometry">
            <mxPoint as="offset" />
          </mxGeometry>
        </mxCell>
        <mxCell id="cS7-RgSccxMJ9TShwJvT-70" style="edgeStyle=orthogonalEdgeStyle;rounded=0;orthogonalLoop=1;jettySize=auto;html=1;exitX=1;exitY=0.5;exitDx=0;exitDy=0;entryX=0;entryY=0.5;entryDx=0;entryDy=0;" edge="1" parent="WIyWlLk6GJQsqaUBKTNV-1" source="sKyEI40k2Y5IoA3rtuJI-125" target="cS7-RgSccxMJ9TShwJvT-63">
          <mxGeometry relative="1" as="geometry">
            <Array as="points">
              <mxPoint x="270" y="480" />
              <mxPoint x="270" y="510" />
            </Array>
          </mxGeometry>
        </mxCell>
        <mxCell id="cS7-RgSccxMJ9TShwJvT-78" value="When sending&lt;br&gt;message" style="edgeLabel;html=1;align=center;verticalAlign=middle;resizable=0;points=[];" vertex="1" connectable="0" parent="cS7-RgSccxMJ9TShwJvT-70">
          <mxGeometry x="0.296" y="4" relative="1" as="geometry">
            <mxPoint y="4" as="offset" />
          </mxGeometry>
        </mxCell>
        <mxCell id="sKyEI40k2Y5IoA3rtuJI-125" value="Frontend" style="rounded=1;whiteSpace=wrap;html=1;" parent="WIyWlLk6GJQsqaUBKTNV-1" vertex="1">
          <mxGeometry x="110" y="450" width="120" height="60" as="geometry" />
        </mxCell>
        <mxCell id="cS7-RgSccxMJ9TShwJvT-42" style="edgeStyle=orthogonalEdgeStyle;rounded=0;orthogonalLoop=1;jettySize=auto;html=1;entryX=0;entryY=0.5;entryDx=0;entryDy=0;" edge="1" parent="WIyWlLk6GJQsqaUBKTNV-1" source="cS7-RgSccxMJ9TShwJvT-41" target="cS7-RgSccxMJ9TShwJvT-22">
          <mxGeometry relative="1" as="geometry" />
        </mxCell>
        <mxCell id="cS7-RgSccxMJ9TShwJvT-82" value="Creating a new&lt;br&gt;session" style="edgeLabel;html=1;align=center;verticalAlign=middle;resizable=0;points=[];" vertex="1" connectable="0" parent="cS7-RgSccxMJ9TShwJvT-42">
          <mxGeometry x="-0.0844" y="2" relative="1" as="geometry">
            <mxPoint y="2" as="offset" />
          </mxGeometry>
        </mxCell>
        <mxCell id="cS7-RgSccxMJ9TShwJvT-41" value="Session Microservice" style="rounded=1;whiteSpace=wrap;html=1;" vertex="1" parent="WIyWlLk6GJQsqaUBKTNV-1">
          <mxGeometry x="100" y="290" width="130" height="60" as="geometry" />
        </mxCell>
        <mxCell id="cS7-RgSccxMJ9TShwJvT-71" style="edgeStyle=orthogonalEdgeStyle;rounded=0;orthogonalLoop=1;jettySize=auto;html=1;exitX=0;exitY=0.5;exitDx=0;exitDy=0;entryX=0.5;entryY=1;entryDx=0;entryDy=0;" edge="1" parent="WIyWlLk6GJQsqaUBKTNV-1" source="cS7-RgSccxMJ9TShwJvT-66" target="sKyEI40k2Y5IoA3rtuJI-125">
          <mxGeometry relative="1" as="geometry" />
        </mxCell>
        <mxCell id="cS7-RgSccxMJ9TShwJvT-79" value="Fired when receiving&lt;br&gt;message" style="edgeLabel;html=1;align=center;verticalAlign=middle;resizable=0;points=[];" vertex="1" connectable="0" parent="cS7-RgSccxMJ9TShwJvT-71">
          <mxGeometry x="-0.1662" y="2" relative="1" as="geometry">
            <mxPoint as="offset" />
          </mxGeometry>
        </mxCell>
      </root>
    </mxGraphModel>
  </diagram>
</mxfile>
